<?xml version="1.0" encoding="iso-8859-1"?>
<!-- Generator: Adobe Illustrator 18.1.1, SVG Export Plug-In . SVG Version: 6.00 Build 0)  -->
<svg version="1.1" id="Capa_1" xmlns="http://www.w3.org/2000/svg" xmlns:xlink="http://www.w3.org/1999/xlink" x="0px" y="0px"
	 viewBox="0 0 22 22" style="enable-background:new 0 0 22 22;" xml:space="preserve">
<g>
	<path style="fill:#030104;" d="M21,0.502H1c-0.551,0-1,0.449-1,1v2c0,0.551,0.449,1,1,1h0.219l2.304,13.771
		c0.405,1.96,1.746,3.226,3.416,3.226h8.124c1.716,0,3.059-1.274,3.423-3.263l2.297-13.734H21c0.551,0,1-0.449,1-1v-2
		C22,0.951,21.551,0.502,21,0.502z M16.102,4.957l-0.454-0.455h0.909L16.102,4.957z M9.522,19.501l-0.567-0.567l2.001-2.001
		l2.001,2.001l-0.566,0.567H9.522z M5.356,4.502h0.909L5.811,4.957L5.356,4.502z M15.395,5.663l-1.731,1.731l-2.002-2.002
		l0.892-0.891h1.68L15.395,5.663z M7.679,4.502h1.679l0.891,0.891L8.248,7.394l-1.73-1.73L7.679,4.502z M10.956,4.686l-0.184-0.184
		h0.368L10.956,4.686z M10.956,6.099l2.002,2.002l-2.001,2L8.955,8.1L10.956,6.099z M10.25,10.809L8.249,12.81l-2.002-2.002
		l2.001-2.001L10.25,10.809z M10.957,11.516l2.001,2.001l-2.001,2.002l-2.002-2.002L10.957,11.516z M11.664,10.809l2.001-2.001
		l2.001,2.001l-2.001,2.001L11.664,10.809z M7.541,8.101L5.54,10.102L3.906,8.468L3.878,8.303L5.81,6.371L7.541,8.101z M4.19,10.165
		l0.643,0.643l-0.458,0.458L4.19,10.165z M4.994,14.973l-0.417-2.494l0.963-0.963l2.002,2.002L5.54,15.519L4.994,14.973z
		 M8.248,14.224l2.002,2.002l-2.001,2.001l-2.002-2.002L8.248,14.224z M11.664,16.227l2.001-2.002l2.001,2.001l-2.002,2.002
		L11.664,16.227z M14.372,13.518l2.001-2.001l1.038,1.038l-0.387,2.312l-0.651,0.651L14.372,13.518z M17.08,10.809l0.749-0.749
		l-0.215,1.283L17.08,10.809z M16.373,10.102l-2.001-2.001l1.731-1.731l2.001,2.001L16.373,10.102z M3.942,4.502l1.162,1.162
		L3.676,7.092l-0.433-2.59H3.942z M5.484,17.904l-0.131-0.785l0.187-0.187l2.002,2.002l-0.567,0.567H6.938
		C5.896,19.501,5.557,18.25,5.484,17.904z M16.519,17.89c-0.05,0.268-0.352,1.611-1.457,1.611h-0.123l-0.567-0.567l2.002-2.002
		l0.262,0.262L16.519,17.89z M18.313,7.167l-1.504-1.504l1.162-1.161h0.788L18.313,7.167z"/>
</g>
<g>
</g>
<g>
</g>
<g>
</g>
<g>
</g>
<g>
</g>
<g>
</g>
<g>
</g>
<g>
</g>
<g>
</g>
<g>
</g>
<g>
</g>
<g>
</g>
<g>
</g>
<g>
</g>
<g>
</g>
</svg>
